<svg xmlns="http://www.w3.org/2000/svg" viewBox="0 0 24 24" width="20" height="20" fill="#111827">
  <path d="M16.718 11.233c-.012-2.264 1.845-3.349 1.929-3.402-1.053-1.538-2.69-1.75-3.271-1.772-1.39-.146-2.715.816-3.422.816-.706 0-1.796-.797-2.95-.775-1.52.022-2.943.884-3.727 2.24-1.587 2.754-.404 6.825 1.14 9.06.756 1.093 1.656 2.32 2.834 2.273 1.14-.046 1.567-.733 2.946-.733 1.379 0 1.764.733 2.95.71 1.224-.023 1.997-1.116 2.745-2.214.866-1.266 1.224-2.498 1.236-2.561-.026-.012-2.375-.912-2.389-3.642zm-2.2-6.662c.624-.768 1.045-1.833.93-2.9-.9.036-1.985.6-2.63 1.366-.576.666-1.078 1.73-.942 2.744.997.078 2.018-.508 2.642-1.21z"/>
</svg>
