<svg xmlns="http://www.w3.org/2000/svg" viewBox="0 0 48 48" width="20" height="20" fill="none">
  <path fill="#EA4335" d="M24 9.5c3.35 0 6.05 1.15 8.11 3.04l6.08-6.07C34.9 3.12 29.9 1 24 1 14.64 1 6.51 6.28 2.6 14.02l7.1 5.51C11.7 13.16 17.33 9.5 24 9.5Z" />
  <path fill="#34A853" d="M46.14 24.5c0-1.52-.14-2.64-.45-3.8H24v7.1h12.65c-.26 2.02-1.7 5.06-4.88 7.1l7.51 5.82c4.5-4.14 6.86-10.24 6.86-16.32Z" />
  <path fill="#4A90E2" d="M9.74 28.47a14.49 14.49 0 0 1-.77-4.47c0-1.55.28-3.05.76-4.47l-7.1-5.5C.86 16.85 0 20.31 0 24c0 3.69.86 7.15 2.63 9.97l7.11-5.5Z" />
  <path fill="#FBBC05" d="M24 47c6.48 0 11.92-2.08 15.89-5.71l-7.5-5.82c-2.02 1.37-4.73 2.23-8.4 2.23-6.67 0-12.32-3.65-14.28-8.89l-7.11 5.5C6.52 41.72 14.65 47 24 47Z" />
</svg>
