<svg width="116" height="37" viewBox="0 0 116 37" fill="none" xmlns="http://www.w3.org/2000/svg">
<g clip-path="url(#clip0_974_99)">
<path d="M38.635 20.2448H49.2651C50.9632 20.2977 53.008 20.3402 54.1362 21.9216C54.7075 22.7517 54.7809 23.641 54.7809 24.2243C54.7809 24.6613 54.7274 25.5757 54.1362 26.3792C53.4653 27.2511 52.5782 27.5243 52.068 27.6609C53.089 27.9355 55.6138 28.56 55.6138 31.798C55.6138 32.7326 55.3989 33.7285 54.8647 34.5307C53.5978 36.4319 51.4802 36.4319 49.8865 36.4556H38.6337V20.2454L38.635 20.2448ZM42.6973 26.628H48.5695C49.0536 26.628 49.5157 26.6113 49.8879 26.4726C50.8588 26.0789 50.8588 25.0028 50.8588 24.8139C50.8588 23.0973 49.5377 23.0688 48.8922 23.0688H42.6973V26.628ZM42.6973 33.6107H48.8387C49.7759 33.6107 51.5077 33.6316 51.5077 31.4105C51.5077 29.4542 49.951 29.4542 49.3578 29.4542H42.6973V33.6107Z" fill="#6F6F6E"/>
<path d="M63.4589 20.2448H67.8905L75.7884 36.4549H71.1954L69.7987 33.4009H61.4175L60.0208 36.4549H55.5336L63.4589 20.2448ZM66.0455 25.2335C65.9308 25.0307 65.8491 24.7972 65.7695 24.5944C65.6974 24.3776 65.6623 24.1713 65.6342 23.9399C65.5559 24.1525 65.5195 24.3344 65.4728 24.5205C65.3726 24.7254 65.3115 24.9345 65.2044 25.1401L62.7331 30.5309H68.4817L66.0455 25.2342V25.2335Z" fill="#6F6F6E"/>
<path d="M76.7023 20.2448H80.7858L88.8189 29.2695C89.7857 30.4006 89.9732 30.6243 90.9942 31.8865C90.8603 30.3469 90.8603 29.9378 90.8328 28.5342V20.2448H94.755V36.4549H90.699L82.5841 27.3208C81.7265 26.3367 81.3763 25.9158 80.463 24.7707C80.5818 26.012 80.5818 26.2845 80.5983 27.5243V36.4549H76.7023V20.2448Z" fill="#6F6F6E"/>
<path d="M114.231 22.889C114.902 23.694 116 25.4796 116 28.1928C116 33.3578 112.596 36.984 105.983 36.984C99.3701 36.984 95.8826 33.4275 95.8826 28.3761C95.8826 22.7963 99.9118 19.9709 105.292 19.7409C108.524 19.6043 112.19 20.4344 114.231 22.889ZM100.101 28.466C100.101 30.4411 100.845 31.4775 101.148 31.8629C101.543 32.419 102.742 34.0896 105.93 34.0896C109.745 34.0896 111.79 31.52 111.79 28.397C111.79 24.7708 109.037 22.5489 105.769 22.6583C103.029 22.7524 100.101 24.5394 100.101 28.466Z" fill="#6F6F6E"/>
<path d="M30.2257 0L13.5394 11.7644V15.9363L27.2003 6.58402L30.2257 0Z" fill="#6F6F6E"/>
<path d="M32.4642 29.6786C33.109 29.5692 34.2509 29.3385 35.1291 28.6701C36.2923 27.7975 36.7084 26.3367 36.7084 25.0948C36.7084 24.1525 36.4784 22.9336 35.6338 21.9767C34.2721 20.4078 32.5782 20.2455 30.718 20.2455H27.8039L30.2257 14.9696L25.2516 18.4871L19.4487 22.5767V36.4557H23.559V29.9392H28.2193L32.5988 36.4557H37.4211L32.4642 29.6793V29.6786ZM30.1007 27.0727H23.5597V23.0981H29.9126C31.5379 23.0981 31.9272 23.4883 32.23 23.871C32.5054 24.2668 32.5596 24.8146 32.5596 25.1394C32.5596 26.9521 30.9748 27.0727 30.1014 27.0727H30.1007Z" fill="#20201E"/>
<path d="M30.2257 7.29285L14.2583 18.554L13.5298 19.0447V24.439L13.5394 24.43V29.8013C13.5929 31.4315 13.2427 31.9556 12.8411 32.419C12.1963 33.155 11.202 33.5641 9.64401 33.7007C8.43482 33.7453 7.25309 33.7955 5.93678 33.1689C4.37877 32.4379 4.08076 31.2203 4.08076 29.7748V20.2455H0V29.6654C0 31.5876 0.0157932 33.7279 2.59142 35.4466C3.61247 36.1128 4.63283 36.4313 5.4266 36.6188C6.55545 36.8913 7.72276 37.0007 8.87771 37.0007C11.3634 37.0007 14.5192 36.386 16.2118 34.5308C17.6016 33.0198 17.6016 31.3841 17.6229 29.6661V20.7501L17.6352 20.4358L27.2003 13.8922L30.2257 7.29354V7.29285Z" fill="#DB0814"/>
</g>
<defs>
<clipPath id="clip0_974_99">
<rect width="116" height="37" fill="white"/>
</clipPath>
</defs>
</svg>
